<svg width="77" height="44" viewBox="0 0 77 44" fill="none" xmlns="http://www.w3.org/2000/svg">
<path d="M6.93359 14.8438C6.93359 16.3594 7.27344 17.4922 7.95312 18.2422C8.63281 18.9844 9.69141 19.3555 11.1289 19.3555C12.1133 19.3555 12.9688 19.0781 13.6953 18.5234C14.4688 17.9141 14.8555 17.1406 14.8555 16.2031C14.8555 15.4062 14.4531 14.582 13.6484 13.7305C13.4219 13.4961 13.1875 13.2695 12.9453 13.0508C12.7109 12.8242 12.4336 12.582 12.1133 12.3242C11.8008 12.0664 11.4844 11.8008 11.1641 11.5273C10.8516 11.2461 10.5469 10.957 10.25 10.6602C9.96094 10.3633 9.70312 10.0508 9.47656 9.72266C8.96875 9.00391 8.71484 8.28906 8.71484 7.57812C8.71484 6.85938 8.85156 6.22656 9.125 5.67969C9.39844 5.13281 9.76562 4.67188 10.2266 4.29688C11.1797 3.5 12.3164 3.10156 13.6367 3.10156C14.3633 3.10156 14.918 3.17969 15.3008 3.33594C15.6836 3.49219 15.9609 3.60547 16.1328 3.67578C16.3047 3.74609 16.4766 3.78125 16.6484 3.78125C16.8281 3.78125 16.9648 3.76172 17.0586 3.72266C17.1602 3.68359 17.25 3.64453 17.3281 3.60547C17.4062 3.55859 17.4805 3.51562 17.5508 3.47656C17.6211 3.4375 17.6914 3.41797 17.7617 3.41797C17.918 3.44141 17.9922 3.51953 17.9844 3.65234C17.9844 3.77734 17.9805 3.87891 17.9727 3.95703C17.9648 4.03516 17.9531 4.15625 17.9375 4.32031C17.8516 5.03906 17.7852 5.56641 17.7383 5.90234C17.6914 6.23828 17.6602 6.48828 17.6445 6.65234C17.6367 6.80859 17.6172 6.96094 17.5859 7.10938C17.5234 7.44531 17.4023 7.61328 17.2227 7.61328C17.0039 7.61328 16.8867 7.49219 16.8711 7.25C16.7695 5.59375 16.0703 4.50391 14.7734 3.98047C14.3359 3.80078 13.875 3.71094 13.3906 3.71094C12.9062 3.71094 12.4844 3.78516 12.125 3.93359C11.7734 4.08203 11.4609 4.28125 11.1875 4.53125C10.5781 5.08594 10.2734 5.72266 10.2734 6.44141C10.2734 7.48047 10.875 8.49609 12.0781 9.48828C12.4062 9.75391 12.7422 10.0391 13.0859 10.3438C13.4375 10.6484 13.8203 10.9766 14.2344 11.3281C14.6562 11.6719 15.0391 12.043 15.3828 12.4414C16.1797 13.3477 16.5781 14.2578 16.5781 15.1719C16.5781 16.0859 16.4102 16.8359 16.0742 17.4219C15.7461 18.0078 15.3047 18.4922 14.75 18.875C13.6719 19.6172 12.3164 19.9883 10.6836 19.9883C9.39453 19.9883 8.08594 19.6484 6.75781 18.9688C6.33594 18.75 6.03906 18.5703 5.86719 18.4297C5.67969 18.2656 5.58594 18.1562 5.58594 18.1016C5.64844 17.6328 5.73438 17.1758 5.84375 16.7305C5.95312 16.2852 6.03125 15.9258 6.07812 15.6523C6.13281 15.3789 6.16797 15.1914 6.18359 15.0898C6.19922 14.9883 6.22656 14.8906 6.26562 14.7969C6.34375 14.5547 6.47266 14.4336 6.65234 14.4336C6.83984 14.4336 6.93359 14.5703 6.93359 14.8438ZM20.9023 20.3164C20.207 20.3164 19.8594 20 19.8594 19.3672C19.8594 19.2344 19.875 19.1016 19.9062 18.9688L21.7109 10.4492C21.7266 10.3711 21.7344 10.3086 21.7344 10.2617C21.7344 10.1445 21.6758 10.0859 21.5586 10.0859H21.0312C20.8281 10.0859 20.7266 10.0156 20.7266 9.875C20.7266 9.72656 20.7812 9.63281 20.8906 9.59375C21.0078 9.55469 21.1055 9.52734 21.1836 9.51172C21.2617 9.49609 21.3555 9.46875 21.4648 9.42969C21.582 9.38281 21.7344 9.28906 21.9219 9.14844C22.1094 9 22.2969 8.83203 22.4844 8.64453C22.6797 8.44922 22.8711 8.24609 23.0586 8.03516C23.2461 7.82422 23.4219 7.61719 23.5859 7.41406C24.0078 6.90625 24.2695 6.60156 24.3711 6.5C24.543 6.53906 24.6797 6.60156 24.7812 6.6875C24.7188 6.85156 24.6367 7.04297 24.5352 7.26172C24.4336 7.48047 24.3359 7.70313 24.2422 7.92969C24 8.48438 23.8594 8.89062 23.8203 9.14844V9.19531C23.8203 9.36719 23.9141 9.45312 24.1016 9.45312H25.625L25.4961 10.0859H23.7969C23.5859 10.0859 23.4531 10.2227 23.3984 10.4961L21.7695 18.1133C21.7305 18.2773 21.7031 18.4102 21.6875 18.5117C21.6719 18.6055 21.6562 18.6797 21.6406 18.7344C21.6328 18.7891 21.6289 18.8281 21.6289 18.8516V18.8984C21.6289 19.0781 21.7148 19.168 21.8867 19.168C22.1836 19.168 22.5156 18.9844 22.8828 18.6172L24.1836 17.3164L24.3477 17.4922C24.2383 17.8281 23.7969 18.3516 23.0234 19.0625C22.1406 19.8984 21.4336 20.3164 20.9023 20.3164ZM30.1016 19.3672C30.8438 19.3672 31.75 19.0391 32.8203 18.3828L32.9844 18.6758C32.1641 19.3086 31.2344 19.7852 30.1953 20.1055C29.7422 20.2461 29.2773 20.3164 28.8008 20.3164C28.332 20.3164 27.9336 20.2148 27.6055 20.0117C27.2773 19.8164 27.0078 19.5508 26.7969 19.2148C26.4062 18.5742 26.2109 17.7461 26.2109 16.7305C26.3672 14.9961 26.9922 13.3906 28.0859 11.9141C28.8281 10.9141 29.7188 10.2031 30.7578 9.78125C31.2891 9.5625 31.7656 9.45312 32.1875 9.45312C32.6172 9.45312 32.9492 9.49219 33.1836 9.57031C33.418 9.64062 33.625 9.75 33.8047 9.89844C34.2031 10.2188 34.4023 10.625 34.4023 11.1172C34.4023 11.6016 34.2969 12.0195 34.0859 12.3711C33.8828 12.7227 33.6133 13.0273 33.2773 13.2852C32.9414 13.543 32.5586 13.7656 32.1289 13.9531C31.6992 14.1406 31.2617 14.3047 30.8164 14.4453C30.3789 14.5859 29.9453 14.7148 29.5156 14.832C29.0938 14.9414 28.7227 15.0547 28.4023 15.1719C28.1523 15.7578 28.0273 16.3555 28.0273 16.9648C28.0273 18.0586 28.3984 18.793 29.1406 19.168C29.4062 19.3008 29.7266 19.3672 30.1016 19.3672ZM28.5664 14.4688C28.5664 14.6016 28.6719 14.668 28.8828 14.668C30.0625 14.3242 30.9062 13.9766 31.4141 13.625C31.9219 13.2656 32.3047 12.8906 32.5625 12.5C32.8281 12.1094 32.9609 11.6406 32.9609 11.0938C32.9609 10.5391 32.7891 10.1758 32.4453 10.0039C32.3281 9.94141 32.1406 9.91016 31.8828 9.91016C31.6328 9.91016 31.3633 9.98828 31.0742 10.1445C30.7852 10.293 30.5234 10.4961 30.2891 10.7539C30.0547 11.0039 29.8438 11.2891 29.6562 11.6094C29.4688 11.9297 29.3047 12.2578 29.1641 12.5938C28.9297 13.1562 28.7305 13.7812 28.5664 14.4688ZM37.5547 18.9102C37.5547 19.082 37.6523 19.168 37.8477 19.168C38.1602 19.168 38.7109 18.7539 39.5 17.9258C39.5859 17.8398 39.6484 17.7773 39.6875 17.7383L39.9102 17.9609C39.7539 18.2656 39.3125 18.7148 38.5859 19.3086C37.75 19.9805 37.1211 20.3164 36.6992 20.3164C36.4648 20.3164 36.2578 20.2227 36.0781 20.0352C35.9062 19.8555 35.8203 19.668 35.8203 19.4727C35.8203 19.2695 35.832 19.1133 35.8555 19.0039L39.3008 2.92578C39.332 2.80078 39.3477 2.69922 39.3477 2.62109C39.3477 2.42578 39.2617 2.32812 39.0898 2.32812C38.9414 2.32812 38.7422 2.38672 38.4922 2.50391C38.25 2.62109 37.9883 2.74609 37.707 2.87891L37.5547 2.51562C39.7578 1.32031 40.9336 0.722656 41.082 0.722656C41.2383 0.722656 41.3164 0.816406 41.3164 1.00391C41.3164 1.18359 41.1914 1.83984 40.9414 2.97266C40.6992 4.09766 40.4023 5.47656 40.0508 7.10938C39.707 8.74219 39.4023 10.1641 39.1367 11.375C38.8789 12.5859 38.6602 13.6133 38.4805 14.457C38.3008 15.3008 38.1523 16 38.0352 16.5547C37.918 17.1094 37.8242 17.543 37.7539 17.8555C37.6914 18.1602 37.6445 18.3867 37.6133 18.5352C37.5898 18.6836 37.5703 18.793 37.5547 18.8633V18.9102ZM44.1172 18.9102C44.1172 19.082 44.2148 19.168 44.4102 19.168C44.7227 19.168 45.2734 18.7539 46.0625 17.9258C46.1484 17.8398 46.2109 17.7773 46.25 17.7383L46.4727 17.9609C46.3164 18.2656 45.875 18.7148 45.1484 19.3086C44.3125 19.9805 43.6836 20.3164 43.2617 20.3164C43.0273 20.3164 42.8203 20.2227 42.6406 20.0352C42.4688 19.8555 42.3828 19.668 42.3828 19.4727C42.3828 19.2695 42.3945 19.1133 42.418 19.0039L45.8633 2.92578C45.8945 2.80078 45.9102 2.69922 45.9102 2.62109C45.9102 2.42578 45.8242 2.32812 45.6523 2.32812C45.5039 2.32812 45.3047 2.38672 45.0547 2.50391C44.8125 2.62109 44.5508 2.74609 44.2695 2.87891L44.1172 2.51562C46.3203 1.32031 47.4961 0.722656 47.6445 0.722656C47.8008 0.722656 47.8789 0.816406 47.8789 1.00391C47.8789 1.18359 47.7539 1.83984 47.5039 2.97266C47.2617 4.09766 46.9648 5.47656 46.6133 7.10938C46.2695 8.74219 45.9648 10.1641 45.6992 11.375C45.4414 12.5859 45.2227 13.6133 45.043 14.457C44.8633 15.3008 44.7148 16 44.5977 16.5547C44.4805 17.1094 44.3867 17.543 44.3164 17.8555C44.2539 18.1602 44.207 18.3867 44.1758 18.5352C44.1523 18.6836 44.1328 18.793 44.1172 18.8633V18.9102ZM54.1719 18.2305C54.2031 18.082 54.2344 17.9453 54.2656 17.8203C54.2969 17.6875 54.3164 17.5547 54.3242 17.4219C54.332 17.2891 54.3047 17.2227 54.2422 17.2227C54.1562 17.2227 53.9648 17.3555 53.668 17.6211C53.3711 17.8789 53.0977 18.1172 52.8477 18.3359C52.5977 18.5547 52.332 18.7812 52.0508 19.0156C51.7773 19.25 51.5078 19.4609 51.2422 19.6484C50.6406 20.0938 50.1992 20.3164 49.918 20.3164C49.6367 20.3164 49.4062 20.1992 49.2266 19.9648C49.0547 19.7305 48.9219 19.4531 48.8281 19.1328C48.6719 18.5859 48.5938 18.0586 48.5938 17.5508C48.5938 15.9258 49.2109 14.3672 50.4453 12.875C51.625 11.4688 53.0742 10.4727 54.793 9.88672C55.6445 9.59766 56.5117 9.45312 57.3945 9.45312C57.5273 9.45312 57.5938 9.5625 57.5938 9.78125L55.8242 17.8906C55.8164 17.9531 55.8086 18.0156 55.8008 18.0781C55.7852 18.1875 55.7773 18.293 55.7773 18.3945C55.7773 18.4883 55.8086 18.582 55.8711 18.6758C55.9336 18.7695 56 18.8164 56.0703 18.8164C56.1484 18.8164 56.2422 18.7734 56.3516 18.6875C56.4688 18.5938 56.5859 18.4922 56.7031 18.3828C57.0312 18.1016 57.2344 17.9609 57.3125 17.9609C57.4375 17.9609 57.5 18.0312 57.5 18.1719C57.5 18.3203 57.0781 18.7188 56.2344 19.3672C55.3828 20.0312 54.8477 20.3633 54.6289 20.3633C54.3867 20.3633 54.2188 20.2031 54.125 19.8828C54.0781 19.7109 54.0547 19.5195 54.0547 19.3086C54.0547 19.0898 54.0664 18.8906 54.0898 18.7109C54.1133 18.5312 54.1406 18.3711 54.1719 18.2305ZM55.707 10.9766C55.707 10.8516 55.5586 10.7891 55.2617 10.7891C54.9648 10.7891 54.6172 10.8438 54.2188 10.9531C53.8203 11.0547 53.4375 11.2031 53.0703 11.3984C51.7188 12.1094 50.8516 13.3125 50.4688 15.0078C50.3047 15.7422 50.2109 16.332 50.1875 16.7773C50.1719 17.2227 50.1719 17.5508 50.1875 17.7617C50.2031 17.9727 50.2422 18.1719 50.3047 18.3594C50.4609 18.7969 50.75 19.0156 51.1719 19.0156C51.7344 18.7266 52.3398 18.2891 52.9883 17.7031C53.6445 17.1172 54.1641 16.6523 54.5469 16.3086L55.707 10.9766ZM65.832 11.3398L65.2578 11.2461C64.7812 11.2461 64.2891 11.4922 63.7812 11.9844C63.1094 12.6484 62.6797 13.375 62.4922 14.1641C62.4141 14.5078 62.3359 14.8555 62.2578 15.207L61.25 19.8711C61.1562 19.9102 61.0469 19.957 60.9219 20.0117C60.8047 20.0664 60.6797 20.1172 60.5469 20.1641C60.2266 20.2812 59.9883 20.3398 59.832 20.3398C59.6289 20.3398 59.5273 20.2109 59.5273 19.9531C59.5273 19.8203 59.6094 19.3711 59.7734 18.6055C59.9375 17.8398 60.1172 17 60.3125 16.0859C60.5078 15.1641 60.668 14.4062 60.793 13.8125C60.9258 13.2188 61.0234 12.7617 61.0859 12.4414C61.1562 12.1133 61.2109 11.875 61.25 11.7266C61.2891 11.5391 61.3086 11.4297 61.3086 11.3984C61.3086 11.2656 61.2617 11.1992 61.168 11.1992C61.0117 11.1992 60.8555 11.2773 60.6992 11.4336L59.7148 12.3945C59.6758 12.4336 59.6406 12.4531 59.6094 12.4531C59.4375 12.4531 59.3516 12.3711 59.3516 12.207C59.3516 12.0508 59.5312 11.8086 59.8906 11.4805C60.25 11.1445 60.5391 10.8789 60.7578 10.6836C60.9844 10.4883 61.1523 10.3398 61.2617 10.2383C61.3789 10.1367 61.4883 10.043 61.5898 9.95703C61.6992 9.87109 61.8125 9.78906 61.9297 9.71094C62.2188 9.53125 62.4492 9.44141 62.6211 9.44141C62.8789 9.48047 63.0078 9.75391 63.0078 10.2617L62.8672 11.8438C62.8672 12.0078 62.9219 12.0898 63.0312 12.0898C63.0938 12.0898 63.2422 11.9297 63.4766 11.6094C63.7188 11.2812 63.9062 11.0391 64.0391 10.8828C64.1797 10.7188 64.3242 10.5508 64.4727 10.3789C64.6211 10.207 64.7812 10.0547 64.9531 9.92188C65.3516 9.60156 65.7422 9.44141 66.125 9.44141C66.3516 9.44141 66.5 9.625 66.5703 9.99219C66.5938 10.0938 66.6055 10.1914 66.6055 10.2852C66.6055 10.9727 66.3477 11.3242 65.832 11.3398ZM0.0195312 43.125C0.0195312 42.5859 0.289062 42.2461 0.828125 42.1055C0.976562 42.0664 1.14453 42.0469 1.33203 42.0469C1.51172 42.0469 1.72656 42.0742 1.97656 42.1289C2.21875 42.1914 2.46094 42.2578 2.70312 42.3281C3.34375 42.5234 3.80078 42.6211 4.07422 42.6211C4.33984 42.6211 4.57812 42.582 4.78906 42.5039C5 42.4336 5.19531 42.2773 5.375 42.0352C5.5625 41.8008 5.74219 41.4648 5.91406 41.0273C6.09375 40.5977 6.28125 40.0234 6.47656 39.3047C6.67188 38.5859 6.88672 37.7031 7.12109 36.6562C7.35547 35.6094 7.625 34.3594 7.92969 32.9062C8.24219 31.4531 8.59375 29.7734 8.98438 27.8672C9.38281 25.9609 9.71875 24.3516 9.99219 23.0391C10.2734 21.7188 10.4141 20.9805 10.4141 20.8242C10.4141 20.6602 10.3672 20.5156 10.2734 20.3906C10.1797 20.2656 10.0469 20.1719 9.875 20.1094C9.60156 20 9.11328 19.9453 8.41016 19.9453C8.36328 19.9453 8.33984 19.9141 8.33984 19.8516L8.39844 19.5703C8.41406 19.5078 8.45312 19.4766 8.51562 19.4766H14.6211C14.668 19.4766 14.6914 19.5078 14.6914 19.5703L14.6328 19.8516C14.6172 19.9141 14.5234 19.9453 14.3516 19.9453C14.1875 19.9453 13.9883 19.9648 13.7539 20.0039C13.5273 20.0352 13.3203 20.1094 13.1328 20.2266C12.75 20.4688 12.4883 20.9336 12.3477 21.6211C11.8633 23.9102 11.4492 25.875 11.1055 27.5156C10.7617 29.1562 10.4688 30.5469 10.2266 31.6875C9.98438 32.8203 9.78516 33.7461 9.62891 34.4648C9.48047 35.1836 9.35938 35.7617 9.26562 36.1992C9.17188 36.6445 9.09375 36.9922 9.03125 37.2422C8.97656 37.4922 8.90625 37.7891 8.82031 38.1328C8.73438 38.4844 8.59766 38.9023 8.41016 39.3867C8.23047 39.8711 8.00391 40.332 7.73047 40.7695C7.45703 41.2148 7.13672 41.625 6.76953 42C6.40234 42.3828 5.97656 42.7109 5.49219 42.9844C4.45312 43.5781 3.28125 43.875 1.97656 43.875C0.671875 43.875 0.0195312 43.625 0.0195312 43.125ZM21.6289 25.4531C22.0898 25.4531 22.5312 25.8594 22.9531 26.6719C23.3984 27.5156 23.6211 28.3633 23.6211 29.2148C23.6211 30.0586 23.5234 30.7734 23.3281 31.3594C23.1328 31.9375 22.8672 32.4766 22.5312 32.9766C22.2031 33.4766 21.8125 33.9336 21.3594 34.3477C20.9062 34.7539 20.4219 35.1016 19.9062 35.3906C18.8359 36.0078 17.7695 36.3164 16.707 36.3164C16.2852 36.3164 15.8555 35.9062 15.418 35.0859C14.9805 34.25 14.7617 33.4727 14.7617 32.7539C14.7617 32.0352 14.8555 31.3633 15.043 30.7383C15.2383 30.1055 15.5 29.5234 15.8281 28.9922C16.1641 28.4531 16.5547 27.9648 17 27.5273C17.4453 27.0898 17.9219 26.7188 18.4297 26.4141C19.5 25.7734 20.5664 25.4531 21.6289 25.4531ZM16.9531 29.8008C16.8125 30.2617 16.7031 30.7383 16.625 31.2305C16.5547 31.7148 16.5195 32.1289 16.5195 32.4727C16.5195 32.8164 16.5508 33.1523 16.6133 33.4805C16.6758 33.8008 16.7773 34.1094 16.918 34.4062C17.2539 35.1016 17.7148 35.4492 18.3008 35.4492C19.3633 35.4492 20.2422 34.7695 20.9375 33.4102C21.5547 32.1992 21.8633 30.875 21.8633 29.4375C21.8633 28.4766 21.6484 27.6562 21.2188 26.9766C20.9375 26.5391 20.6016 26.3203 20.2109 26.3203C19.8203 26.3203 19.457 26.4141 19.1211 26.6016C18.793 26.7891 18.4922 27.043 18.2188 27.3633C17.9531 27.6758 17.7109 28.043 17.4922 28.4648C17.2812 28.8867 17.1016 29.332 16.9531 29.8008ZM35.7031 25.7344V25.8047C35.7031 25.8281 35.1055 28.6367 33.9102 34.2305C33.9102 34.4805 34 34.6055 34.1797 34.6055C34.2969 34.6055 34.4883 34.4688 34.7539 34.1953C35.0195 33.9141 35.375 33.5469 35.8203 33.0938L36.1016 33.3867C36 33.5898 35.6953 33.9258 35.1875 34.3945C33.8047 35.6758 32.8828 36.3164 32.4219 36.3164C32.1328 36.3164 31.9883 36.0703 31.9883 35.5781C31.9883 35.3438 32.0195 35.082 32.082 34.793L32.9375 30.8555C32.9375 30.7695 32.9023 30.7266 32.832 30.7266C32.7695 30.7266 32.707 30.7617 32.6445 30.832C32.5898 30.8945 32.5 30.9961 32.375 31.1367C32.2578 31.2695 32.0938 31.4492 31.8828 31.6758C31.6797 31.8945 31.4727 32.1211 31.2617 32.3555C30.668 33.0117 30.2969 33.4297 30.1484 33.6094C30 33.7812 29.8477 33.957 29.6914 34.1367C29.543 34.3086 29.3789 34.4922 29.1992 34.6875C29.0195 34.8828 28.8281 35.0781 28.625 35.2734C28.4297 35.4688 28.2344 35.6406 28.0391 35.7891C27.5938 36.1406 27.2383 36.3164 26.9727 36.3164C26.7148 36.3164 26.5117 36.2109 26.3633 36C26.2148 35.7969 26.1406 35.6172 26.1406 35.4609V35.1797C26.1406 35.1328 26.1484 35.0859 26.1641 35.0391L27.8867 26.9297V26.8828C27.8867 26.7109 27.7891 26.625 27.5938 26.625C27.2578 26.625 26.75 26.9961 26.0703 27.7383C25.9219 27.8945 25.8164 28 25.7539 28.0547L25.5312 27.832C25.6875 27.5273 26.1328 27.0781 26.8672 26.4844C27.6953 25.8125 28.3203 25.4766 28.7422 25.4766C28.9766 25.4766 29.1797 25.5703 29.3516 25.7578C29.5312 25.9375 29.6211 26.1328 29.6211 26.3438C29.6211 26.5469 29.0703 29.2461 27.9688 34.4414V34.4883C27.9688 34.6602 28.0664 34.7461 28.2617 34.7461C28.5195 34.7461 29.0039 34.3242 29.7148 33.4805C29.8945 33.2695 30.0859 33.0469 30.2891 32.8125C30.4922 32.5781 30.6953 32.3438 30.8984 32.1094C31.3359 31.5938 31.7266 31.1289 32.0703 30.7148C32.8594 29.7539 33.3281 28.9336 33.4766 28.2539L33.9805 25.9219C34.0352 25.6094 34.1602 25.4531 34.3555 25.4531H35.4219C35.6094 25.4531 35.7031 25.5469 35.7031 25.7344ZM44.1055 27.3398L43.5312 27.2461C43.0547 27.2461 42.5625 27.4922 42.0547 27.9844C41.3828 28.6484 40.9531 29.375 40.7656 30.1641C40.6875 30.5078 40.6094 30.8555 40.5312 31.207L39.5234 35.8711C39.4297 35.9102 39.3203 35.957 39.1953 36.0117C39.0781 36.0664 38.9531 36.1172 38.8203 36.1641C38.5 36.2812 38.2617 36.3398 38.1055 36.3398C37.9023 36.3398 37.8008 36.2109 37.8008 35.9531C37.8008 35.8203 37.8828 35.3711 38.0469 34.6055C38.2109 33.8398 38.3906 33 38.5859 32.0859C38.7812 31.1641 38.9414 30.4062 39.0664 29.8125C39.1992 29.2188 39.2969 28.7617 39.3594 28.4414C39.4297 28.1133 39.4844 27.875 39.5234 27.7266C39.5625 27.5391 39.582 27.4297 39.582 27.3984C39.582 27.2656 39.5352 27.1992 39.4414 27.1992C39.2852 27.1992 39.1289 27.2773 38.9727 27.4336L37.9883 28.3945C37.9492 28.4336 37.9141 28.4531 37.8828 28.4531C37.7109 28.4531 37.625 28.3711 37.625 28.207C37.625 28.0508 37.8047 27.8086 38.1641 27.4805C38.5234 27.1445 38.8125 26.8789 39.0312 26.6836C39.2578 26.4883 39.4258 26.3398 39.5352 26.2383C39.6523 26.1367 39.7617 26.043 39.8633 25.957C39.9727 25.8711 40.0859 25.7891 40.2031 25.7109C40.4922 25.5312 40.7227 25.4414 40.8945 25.4414C41.1523 25.4805 41.2812 25.7539 41.2812 26.2617L41.1406 27.8438C41.1406 28.0078 41.1953 28.0898 41.3047 28.0898C41.3672 28.0898 41.5156 27.9297 41.75 27.6094C41.9922 27.2812 42.1797 27.0391 42.3125 26.8828C42.4531 26.7188 42.5977 26.5508 42.7461 26.3789C42.8945 26.207 43.0547 26.0547 43.2266 25.9219C43.625 25.6016 44.0156 25.4414 44.3984 25.4414C44.625 25.4414 44.7734 25.625 44.8438 25.9922C44.8672 26.0938 44.8789 26.1914 44.8789 26.2852C44.8789 26.9727 44.6211 27.3242 44.1055 27.3398ZM49.2734 25.4531C49.5547 25.4531 49.6953 25.7148 49.6953 26.2383C49.6953 26.4727 49.6797 26.6523 49.6484 26.7773C49.625 26.9023 49.5898 27.0703 49.543 27.2812C49.5039 27.4922 49.4414 27.8086 49.3555 28.2305C49.2695 28.6445 49.1484 29.2383 48.9922 30.0117C48.9922 30.0977 49.0234 30.1406 49.0859 30.1406C49.1562 30.1406 49.2188 30.1094 49.2734 30.0469C49.3359 29.9766 49.4297 29.8711 49.5547 29.7305C49.6797 29.5898 49.8711 29.3711 50.1289 29.0742C50.3945 28.7695 50.6758 28.457 50.9727 28.1367C51.2773 27.8086 51.5898 27.4844 51.9102 27.1641C52.2383 26.8438 52.5625 26.5547 52.8828 26.2969C53.6094 25.7344 54.2109 25.4531 54.6875 25.4531C54.9219 25.4531 55.125 25.5469 55.2969 25.7344C55.4766 25.9141 55.5664 26.1055 55.5664 26.3086C55.5664 26.5117 55.5547 26.6641 55.5312 26.7656L53.4453 34.875V34.9219C53.4453 35.0938 53.543 35.1797 53.7383 35.1797C54.0508 35.1797 54.6016 34.7656 55.3906 33.9375C55.4766 33.8516 55.5391 33.7891 55.5781 33.75L55.8008 33.9727C55.6445 34.2773 55.2031 34.7266 54.4766 35.3203C53.6406 35.9922 53.0117 36.3281 52.5898 36.3281C52.3555 36.3281 52.1484 36.2344 51.9688 36.0469C51.7969 35.8672 51.7109 35.6797 51.7109 35.4844C51.7109 35.2812 51.7227 35.125 51.7461 35.0156L53.832 26.9062V26.8594C53.832 26.7891 53.7969 26.7305 53.7266 26.6836C53.6641 26.6289 53.5781 26.6055 53.4688 26.6133C53.3672 26.6133 53.1914 26.707 52.9414 26.8945C52.6992 27.0742 52.4297 27.3086 52.1328 27.5977C51.8359 27.8867 51.5234 28.207 51.1953 28.5586C50.875 28.9102 50.5664 29.2578 50.2695 29.6016C49.457 30.5391 48.9805 31.1133 48.8398 31.3242C48.707 31.5273 48.6172 31.7422 48.5703 31.9688L47.7266 35.8711C47.1875 36.1836 46.7734 36.3398 46.4844 36.3398C46.1953 36.3398 46.0508 36.2266 46.0508 36C46.0508 35.8984 46.0703 35.7656 46.1094 35.6016C46.1797 35.2891 46.2227 35.0898 46.2383 35.0039L47.8086 27.5742V27.5273C47.8086 27.3086 47.7188 27.1992 47.5391 27.1992C47.4219 27.1992 47.2266 27.3398 46.9531 27.6211C46.6797 27.8945 46.3203 28.2578 45.875 28.7109L45.5938 28.418C45.7656 28.0664 46.3906 27.4375 47.4688 26.5312C48.3281 25.8125 48.9297 25.4531 49.2734 25.4531ZM61.0391 35.3672C61.7812 35.3672 62.6875 35.0391 63.7578 34.3828L63.9219 34.6758C63.1016 35.3086 62.1719 35.7852 61.1328 36.1055C60.6797 36.2461 60.2148 36.3164 59.7383 36.3164C59.2695 36.3164 58.8711 36.2148 58.543 36.0117C58.2148 35.8164 57.9453 35.5508 57.7344 35.2148C57.3438 34.5742 57.1484 33.7461 57.1484 32.7305C57.3047 30.9961 57.9297 29.3906 59.0234 27.9141C59.7656 26.9141 60.6562 26.2031 61.6953 25.7812C62.2266 25.5625 62.7031 25.4531 63.125 25.4531C63.5547 25.4531 63.8867 25.4922 64.1211 25.5703C64.3555 25.6406 64.5625 25.75 64.7422 25.8984C65.1406 26.2188 65.3398 26.625 65.3398 27.1172C65.3398 27.6016 65.2344 28.0195 65.0234 28.3711C64.8203 28.7227 64.5508 29.0273 64.2148 29.2852C63.8789 29.543 63.4961 29.7656 63.0664 29.9531C62.6367 30.1406 62.1992 30.3047 61.7539 30.4453C61.3164 30.5859 60.8828 30.7148 60.4531 30.832C60.0312 30.9414 59.6602 31.0547 59.3398 31.1719C59.0898 31.7578 58.9648 32.3555 58.9648 32.9648C58.9648 34.0586 59.3359 34.793 60.0781 35.168C60.3438 35.3008 60.6641 35.3672 61.0391 35.3672ZM59.5039 30.4688C59.5039 30.6016 59.6094 30.668 59.8203 30.668C61 30.3242 61.8438 29.9766 62.3516 29.625C62.8594 29.2656 63.2422 28.8906 63.5 28.5C63.7656 28.1094 63.8984 27.6406 63.8984 27.0938C63.8984 26.5391 63.7266 26.1758 63.3828 26.0039C63.2656 25.9414 63.0781 25.9102 62.8203 25.9102C62.5703 25.9102 62.3008 25.9883 62.0117 26.1445C61.7227 26.293 61.4609 26.4961 61.2266 26.7539C60.9922 27.0039 60.7812 27.2891 60.5938 27.6094C60.4062 27.9297 60.2422 28.2578 60.1016 28.5938C59.8672 29.1562 59.668 29.7812 59.5039 30.4688ZM66.207 42.7734C66.4102 42.6953 66.6094 42.5586 66.8047 42.3633C67 42.168 67.2812 41.6719 67.6484 40.875C68.0234 40.0859 68.2891 39.5156 68.4453 39.1641C68.6016 38.8125 68.75 38.4609 68.8906 38.1094C69.5547 36.4531 69.8867 35.1992 69.8867 34.3477C69.8867 32.7305 69.8281 31.6016 69.7109 30.9609C69.3516 29.0469 69.1055 27.9453 68.9727 27.6562C68.8477 27.3594 68.7383 27.1523 68.6445 27.0352C68.5508 26.9102 68.4414 26.8398 68.3164 26.8242C68.168 26.8477 67.9531 27.0469 67.6719 27.4219C67.1328 28.1406 66.8125 28.5 66.7109 28.5C66.6641 28.5 66.6172 28.4805 66.5703 28.4414C66.5234 28.4023 66.5 28.3281 66.5 28.2188C66.5 28.1094 66.582 27.9375 66.7461 27.7031C66.9102 27.4688 67.0977 27.2344 67.3086 27C67.5273 26.7578 67.7383 26.5391 67.9414 26.3438C68.1445 26.1406 68.2695 26.0117 68.3164 25.957C68.3633 25.8945 68.418 25.8398 68.4805 25.793C68.5508 25.7383 68.6289 25.6875 68.7148 25.6406C68.918 25.5156 69.0859 25.4531 69.2188 25.4531C69.5 25.4531 69.6797 25.5273 69.7578 25.6758C70.8906 27.6211 71.457 30.3359 71.457 33.8203C71.457 34.1016 71.5312 34.293 71.6797 34.3945L72.5938 32.7891C73.5078 31.2344 74.1641 29.8789 74.5625 28.7227C74.7109 28.293 74.7852 27.9766 74.7852 27.7734C74.7852 27.5625 74.7656 27.4102 74.7266 27.3164C74.6875 27.2148 74.6406 27.125 74.5859 27.0469C74.4609 26.8359 74.3984 26.668 74.3984 26.543C74.3984 26.4102 74.4219 26.2812 74.4688 26.1562C74.5156 26.0234 74.5859 25.9062 74.6797 25.8047C74.8828 25.5703 75.1133 25.4531 75.3711 25.4531C75.6367 25.4531 75.8438 25.4922 75.9922 25.5703C76.1406 25.6406 76.2578 25.7422 76.3438 25.875C76.5 26.1172 76.5781 26.4297 76.5781 26.8125C76.5781 27.1953 76.4805 27.5977 76.2852 28.0195C76.0977 28.4414 75.8516 28.9102 75.5469 29.4258C75.25 29.9336 74.9141 30.4727 74.5391 31.043C74.1641 31.6055 73.793 32.1641 73.4258 32.7188C72.4961 34.125 71.8945 35.0898 71.6211 35.6133C71.3477 36.2305 71.043 36.9648 70.707 37.8164C70.3711 38.6758 69.9609 39.6406 69.4766 40.7109L69.0312 41.6953C69.0156 41.7266 69 41.7695 68.9844 41.8242C68.9688 41.8789 68.9531 41.9375 68.9375 42C68.8906 42.125 68.8672 42.2461 68.8672 42.3633C68.8672 42.4883 68.8945 42.5938 68.9492 42.6797C69.0508 42.8281 69.3203 42.8984 69.7578 42.8906C69.8281 42.8828 69.9258 42.8789 70.0508 42.8789C70.1836 42.8789 70.3594 42.8828 70.5781 42.8906L70.4961 43.2656H65L65.082 42.8906C65.6367 42.8906 66.0117 42.8516 66.207 42.7734Z" fill="white"/>
</svg>
